<svg xmlns="http://www.w3.org/2000/svg" xmlns:svg="http://www.w3.org/2000/svg" version="1.1" id="typir"
   xml:space="preserve" viewBox="187.49 233.5 266.35 331.29">
   <defs id="defs1">
      <style>
         :root {
            --primary-color: #ffffff;
         }
      </style>
   </defs>
   <g id="layer1" transform="translate(254.63954,214.31763)">
      <path style="fill:var(--primary-color);stroke-width:4.06696"
         d="m -48.126999,164.52709 c -4.361216,-9.35005 -5.539339,-13.08356 -5.945006,-18.83985 -0.35289,-5.00719 -0.33528,-5.06718 3.787369,-12.91258 4.279572,-8.144 6.770399,-14.96237 6.779924,-18.55927 0.01423,-5.37005 -4.049346,-11.99517 -9.18622,-14.976936 l -2.177147,-1.26375 -1.616477,3.236676 c -2.248908,4.50301 -5.367161,8.08264 -6.256177,7.18185 -1.956828,-1.98272 -5.256447,-26.386434 -4.15895,-30.759221 0.404255,-1.610726 0.856558,-1.880093 3.148539,-1.875135 3.835652,0.0081 18.297603,1.955815 24.197426,3.258547 17.956536,3.964956 33.1395227,12.393762 41.6448567,23.119069 3.8666662,4.8759 3.8477792,5.46405 -0.46127,14.36652 -2.37734705,4.91163 -4.1121639,7.21072 -9.4923882,12.58003 -4.6168485,4.60754 -8.6191235,7.77736 -13.3983735,10.61171 l -6.814973,4.04157 0.182321,3.13209 c 0.100291,1.7226 0.544167,4.7461 0.986396,6.71885 1.059718,4.72731 5.029408,13.27975 6.953672,14.98124 0.84051,0.7432 1.35535,1.63094 1.144092,1.97276 -0.211279,0.34163 -6.197748,0.62147 -13.303317,0.62147 h -12.919217 z m 38.4453384,3.94552 c -1.6483734,-3.2545 -7.9924014,-19.23992 -7.9924014,-20.13892 0,-0.3522 2.017592,-1.87734 4.483534,-3.38956 2.465945,-1.51222 7.1467591,-5.45529 10.401804,-8.76242 l 5.9182703,-6.01291 0.00181,7.04636 c 0.00198,7.73312 1.6792135,15.31616 5.6802803,25.68153 1.2149134,3.14737 2.2089304,6.29483 2.2089304,6.99431 0,1.15452 -0.891314,1.27173 -9.669858,1.27173 h -9.669858 z m 87.8185816,1.79344 c -0.149054,-0.4932 -0.61965,-5.73896 -1.045777,-11.65719 -1.111678,-15.43951 -2.820292,-23.3486 -8.988456,-41.60724 C 66.124931,111.14719 64.50789,104.60508 63.758484,99.42616 59.790929,72.007543 54.580776,46.698797 48.933052,27.410385 c -1.673849,-5.716614 -1.339834,-6.277829 3.216901,-5.405097 17.057475,3.266944 24.995863,5.080188 38.555617,8.806654 3.637929,0.999772 13.01393,4.136338 24.89975,8.329752 2.48172,0.875575 4.98353,1.411091 5.55958,1.19004 0.57605,-0.221039 1.04736,-1.068402 1.04736,-1.883005 0,-2.444858 3.23636,-8.04981 6.52312,-11.297177 1.69717,-1.676842 3.47329,-3.048805 3.94692,-3.048805 1.15187,0 9.09614,11.988181 12.18899,18.393612 2.3805,4.930122 2.61418,5.168149 6.22721,6.342925 6.20788,2.018499 11.98989,6.031088 19.17727,13.308604 11.55759,11.702539 18.28787,22.366235 22.84868,36.202221 4.95453,15.030381 5.84723,35.452631 1.74773,39.982531 -2.20529,2.43684 -6.59859,1.1952 -10.57714,-2.98925 -2.01443,-2.11872 -2.14506,-2.63763 -2.58927,-10.28651 -0.3718,-6.40192 -0.8728,-9.05044 -2.44092,-12.90387 -1.08521,-2.66673 -2.25947,-5.02559 -2.60946,-5.2419 -0.35001,-0.21632 -0.3145,0.45321 0.0788,1.48782 1.05731,2.78093 0.86858,6.5063 -0.38221,7.54435 -0.8104,0.67259 -3.20234,0.80692 -9.14641,0.51366 -4.42696,-0.2184 -8.85606,-0.70831 -9.84244,-1.08873 -0.98637,-0.38026 -3.7303,-1.27698 -6.0976,-1.99238 -6.95724,-2.10246 -15.02183,-6.75306 -20.90901,-12.05759 -2.03073,-1.82975 -3.98793,-3.326812 -4.34932,-3.326812 -0.36139,0 -1.60524,0.995769 -2.76407,2.212822 -1.15883,1.21705 -3.39823,3.08278 -4.97643,4.14607 -3.38988,2.28388 -10.75712,5.83633 -12.10365,5.83633 -1.43944,0 -2.93358,2.10116 -4.59104,6.45631 -3.020267,7.93597 -3.921984,12.43618 -3.880981,19.36887 0.04161,7.03449 1.188092,12.86513 4.795911,24.39043 1.04983,3.35369 2.17561,6.96104 2.50175,8.01638 0.32613,1.05529 0.40728,2.10444 0.18029,2.33142 -0.22698,0.22694 -6.341078,0.41267 -13.586901,0.41267 -9.9166,0 -13.24123,-0.22164 -13.445221,-0.89668 z M 155.95756,76.802792 c 1.8213,-1.648251 1.77351,-2.370461 -0.20847,-3.150219 -0.88774,-0.34927 -3.28799,-1.310783 -5.33388,-2.136717 -2.0459,-0.825934 -4.2249,-1.501695 -4.84222,-1.501695 -1.85157,0 -1.36943,3.900544 0.80095,6.479901 1.74365,2.072211 2.21557,2.252849 5.05068,1.933292 1.72001,-0.193872 3.75983,-0.924923 4.53292,-1.624562 z m -42.6262,85.685618 c -5.80151,-12.35781 -7.13216,-17.64697 -7.20244,-28.62869 -0.0543,-8.49156 0.0502,-9.17631 1.97203,-12.91258 2.38876,-4.64414 3.89158,-6.4563 5.35419,-6.4563 0.86191,0 0.97916,0.71872 0.61825,3.78956 -0.52929,4.50342 0.98643,15.33714 3.13314,22.39428 1.53981,5.06206 6.23781,16.14935 10.48068,24.73445 1.26346,2.55653 2.14349,4.89694 1.95562,5.2009 -0.18789,0.30421 -3.01855,0.5527 -6.2904,0.5527 h -5.94881 z M 20.642386,111.66242 c -3.212314,-0.76795 -3.692519,-1.19718 -5.231435,-4.67615 C 11.947837,99.157322 2.7096372,88.513961 -5.1518245,83.295817 -13.300836,77.886811 -24.975077,72.960007 -35.608206,70.442505 c -7.257893,-1.718382 -17.240792,-3.292994 -20.89328,-3.295515 -5.163428,-0.0036 -7.801353,-0.724394 -7.801353,-2.131756 0,-2.299432 2.815607,-9.430733 5.409145,-13.700158 7.152571,-11.774406 19.737403,-20.847316 36.556753,-26.355235 8.351905,-2.735039 16.5591592,-4.287604 27.2599009,-5.156749 13.7221401,-1.114549 30.7951871,-0.653885 32.3211611,0.87209 1.259354,1.259353 7.684997,25.238603 11.010559,41.089269 4.702795,22.414969 8.565281,47.390779 7.493178,48.452789 -1.256677,1.24485 -10.309671,2.10845 -21.412903,2.04265 -6.312818,-0.0374 -12.474475,-0.30628 -13.692569,-0.59747 z"
         id="tapir"></path>
      <path
         d="m -40.249054,315.95579 v 4.18222 q -10.604916,0 -18.073166,-7.02015 -7.46825,-7.16952 -7.46825,-18.22253 V 224.9925 h 4.77968 v 27.18443 h 20.612371 v 4.18222 H -61.01079 v 38.53618 q 0,9.11126 5.9746,15.08586 6.123965,5.9746 14.787136,5.9746 z m 66.019215,-63.92822 h 4.77968 v 65.12314 q 0,13.29349 -9.26063,22.55412 -9.260631,9.26063 -22.703481,9.26063 -16.131421,0 -25.541416,-12.3973 l 0.29873,-7.46825 q 4.18222,7.16952 10.903645,11.35174 6.8707907,4.33159 14.339041,4.33159 11.0530104,0 19.118721,-8.06571 8.06571,-7.91635 8.06571,-19.11872 v -11.35174 q -7.318885,14.63777 -25.54141596,14.63777 -12.39729504,0 -21.20983104,-8.66317 -8.812535,-8.81254 -8.812535,-21.06047 v -39.13363 h 4.77968 v 39.13363 q 0,10.30619 7.46825,17.9238 7.6176157,7.61762 17.92380105,7.61762 10.30618495,0 17.77443595,-7.61762 7.617615,-7.61761 7.617615,-17.9238 z m 21.20979,97.08725 v -97.08725 h 4.779681 v 16.43015 q 4.032855,-8.21508 12.54666,-13.14412 8.66317,-4.92905 17.923801,-4.92905 14.787135,0 25.093317,10.45555 10.45555,10.30619 10.45555,24.7946 0,14.4884 -10.45555,24.94395 -10.306182,10.30619 -25.093317,10.30619 -8.961901,0 -17.475706,-4.77968 -8.513805,-4.92905 -12.994755,-13.14412 v 46.15378 z m 4.480951,-63.33076 q 0,12.54666 9.111265,21.80729 9.26063,9.11127 21.807291,9.11127 12.696025,0 21.657922,-9.11127 8.9619,-9.26063 8.9619,-21.80729 0,-12.69603 -9.11126,-21.95666 -8.961902,-9.26063 -21.508562,-9.26063 -12.546661,0 -21.807291,9.41 -9.111265,9.26063 -9.111265,21.80729 z m 87.229208,-33.60713 v 67.06489 h -4.77968 v -67.06489 z m -2.38984,-16.43015 q -4.33159,0 -4.33159,-4.03285 0,-4.03286 4.33159,-4.03286 4.33158,0 4.33158,4.03286 0,4.03285 -4.33158,4.03285 z m 61.53829,25.39205 q -6.57206,-6.57206 -14.4884,-6.57206 -7.91635,0 -14.04031,5.9746 -5.9746,5.9746 -5.9746,13.89095 v 44.8095 h -4.77968 v -67.21425 h 4.77968 v 10.00745 q 2.68857,-5.07841 8.36444,-8.36444 5.67587,-3.28603 12.69602,-3.28603 7.02016,0 13.44285,4.77968 z"
         id="text1"
         style="font-size:149.365px;font-weight:'900';font-family:'Poiret One';fill:var(--primary-color);stroke:var(--primary-color);stroke-width:2.71828"
         aria-label="typir"></path>
   </g>
</svg>